<mxfile host="app.diagrams.net" modified="2024-04-19T16:07:08.850Z" agent="Mozilla/5.0 (Windows NT 10.0; Win64; x64) AppleWebKit/537.36 (KHTML, like Gecko) Chrome/123.0.0.0 Safari/537.36" version="24.2.5" etag="pTYKfyO4dULNdJ0JISyz" type="github">
  <diagram name="PÃ¡gina-1" id="1RrXKW-j6NRrJkK_RttK">
    <mxGraphModel>
      <root>
        <mxCell id="0" />
        <mxCell id="1" parent="0" />
      </root>
    </mxGraphModel>
  </diagram>
</mxfile>
